# Blender 3.6.2
# www.blender.org
mtllib Rock.mtl
o Cube
v -0.998632 -0.705742 0.842959
v -0.238493 2.105315 0.761529
v -0.868779 -0.972392 -0.967389
v -0.787310 0.647794 -1.378605
v 0.915688 -0.737316 0.600651
v 0.665937 1.629672 0.580872
v 0.185464 -0.826432 -1.234019
v 0.955051 0.982919 -1.053668
vn -0.9818 0.1889 0.0217
vn 0.0338 -0.0755 -0.9966
vn 0.9878 -0.1191 -0.1003
vn 0.1492 0.0046 0.9888
vn 0.0535 -0.9947 0.0883
vn 0.0728 0.8690 -0.4894
vt 0.375000 0.000000
vt 0.625000 0.000000
vt 0.625000 0.250000
vt 0.375000 0.250000
vt 0.625000 0.500000
vt 0.375000 0.500000
vt 0.625000 0.750000
vt 0.375000 0.750000
vt 0.625000 1.000000
vt 0.375000 1.000000
vt 0.125000 0.500000
vt 0.125000 0.750000
vt 0.875000 0.500000
vt 0.875000 0.750000
s 0
f 1/1/1 2/2/1 4/3/1 3/4/1
f 3/4/2 4/3/2 8/5/2 7/6/2
f 7/6/3 8/5/3 6/7/3 5/8/3
f 5/8/4 6/7/4 2/9/4 1/10/4
f 3/11/5 7/6/5 5/8/5 1/12/5
f 8/5/6 4/13/6 2/14/6 6/7/6
